<?xml version="1.0" encoding="utf-8"?>
<!-- Generator: Adobe Illustrator 24.3.0, SVG Export Plug-In . SVG Version: 6.00 Build 0)  -->
<svg version="1.1" id="Capa_1" xmlns="http://www.w3.org/2000/svg" xmlns:xlink="http://www.w3.org/1999/xlink" x="0px" y="0px"
	 viewBox="0 0 5 5" style="enable-background:new 0 0 5 5;" xml:space="preserve">
<style type="text/css">
	.st0{fill:#9D79B5;}
</style>
<g>
	<path class="st0" d="M0.37,0.63L2.11,2.6c0.1,0.11,0.24,0.18,0.39,0.18c0.15,0,0.29-0.06,0.39-0.18L4.6,0.66
		c0.01-0.02,0.03-0.03,0.05-0.04C4.57,0.59,4.49,0.58,4.41,0.58H0.59C0.51,0.58,0.43,0.59,0.37,0.63C0.37,0.62,0.37,0.63,0.37,0.63z
		"/>
	<path class="st0" d="M4.91,0.85C4.9,0.87,4.89,0.89,4.88,0.91L3.17,2.85C3,3.04,2.76,3.15,2.5,3.15c-0.26,0-0.5-0.11-0.67-0.3
		L0.09,0.87c0,0-0.01-0.01-0.01-0.01C0.03,0.95,0,1.05,0,1.17v2.67c0,0.33,0.26,0.59,0.59,0.59h3.82C4.74,4.42,5,4.16,5,3.83V1.17
		C5,1.05,4.97,0.94,4.91,0.85z"/>
</g>
</svg>
