<?xml version="1.0" encoding="utf-8"?>
<!-- Generator: Adobe Illustrator 24.3.0, SVG Export Plug-In . SVG Version: 6.00 Build 0)  -->
<svg version="1.1" id="Capa_1" xmlns="http://www.w3.org/2000/svg" xmlns:xlink="http://www.w3.org/1999/xlink" x="0px" y="0px"
	 viewBox="0 0 5 5" style="enable-background:new 0 0 5 5;" xml:space="preserve">
<style type="text/css">
	.st0{fill:#5A4193;}
</style>
<g>
	<path class="st0" d="M3.51,0H1.49C1.08,0,0.75,0.33,0.75,0.74v3.52C0.75,4.67,1.08,5,1.49,5h2.02c0.41,0,0.74-0.33,0.74-0.74V0.74
		C4.25,0.33,3.92,0,3.51,0z M1.49,0.34h2.02c0.22,0,0.4,0.18,0.4,0.4v2.82H1.09V0.74C1.09,0.52,1.27,0.34,1.49,0.34z M3.51,4.66
		H1.49c-0.22,0-0.4-0.18-0.4-0.4V3.9h2.82v0.36C3.91,4.48,3.73,4.66,3.51,4.66z"/>
	<path class="st0" d="M2.45,0.83c0.08,0,0.14-0.06,0.14-0.14c0-0.08-0.06-0.14-0.14-0.14c-0.08,0-0.14,0.06-0.14,0.14
		C2.32,0.77,2.38,0.83,2.45,0.83z"/>
	<path class="st0" d="M2.45,4.11c-0.08,0-0.14,0.06-0.14,0.14c0,0.08,0.06,0.14,0.14,0.14c0.08,0,0.14-0.06,0.14-0.14
		C2.59,4.18,2.53,4.11,2.45,4.11z"/>
</g>
</svg>
