<?xml version="1.0" encoding="utf-8"?>
<!-- Generator: Adobe Illustrator 24.3.0, SVG Export Plug-In . SVG Version: 6.00 Build 0)  -->
<svg version="1.1" id="Capa_1" xmlns="http://www.w3.org/2000/svg" xmlns:xlink="http://www.w3.org/1999/xlink" x="0px" y="0px"
	 viewBox="0 0 5 5" style="enable-background:new 0 0 5 5;" xml:space="preserve">
<style type="text/css">
	.st0{fill:#51AE32;}
	.st1{fill-rule:evenodd;clip-rule:evenodd;fill:#51AE32;}
</style>
<g>
	<path class="st0" d="M0.01,5l0.36-1.34C0.16,3.3,0.05,2.89,0.05,2.47C0.05,1.11,1.16,0,2.52,0c1.36,0,2.47,1.11,2.47,2.47
		c0,1.36-1.11,2.47-2.47,2.47c-0.41,0-0.81-0.1-1.17-0.3L0.01,5z M1.42,4.14L1.5,4.19c0.31,0.19,0.66,0.28,1.02,0.28
		c1.1,0,2-0.9,2-2c0-1.1-0.9-2-2-2c-1.1,0-2,0.9-2,2c0,0.36,0.1,0.72,0.29,1.04l0.05,0.09l-0.2,0.75L1.42,4.14z"/>
	<path class="st1" d="M3.44,2.81c-0.1-0.06-0.23-0.13-0.35-0.08C3,2.77,2.94,2.91,2.88,2.99C2.85,3.03,2.81,3.03,2.77,3.01
		c-0.34-0.14-0.61-0.37-0.8-0.68C1.93,2.28,1.94,2.24,1.98,2.19c0.06-0.07,0.13-0.14,0.15-0.24c0.02-0.09-0.03-0.2-0.06-0.28
		c-0.05-0.1-0.1-0.25-0.21-0.31c-0.1-0.05-0.22-0.02-0.31,0.05C1.4,1.53,1.33,1.72,1.33,1.91c0,0.05,0.01,0.11,0.02,0.16
		C1.38,2.19,1.44,2.3,1.5,2.41c0.05,0.08,0.1,0.16,0.16,0.24C1.84,2.9,2.07,3.12,2.34,3.28c0.13,0.08,0.28,0.15,0.42,0.2
		c0.17,0.05,0.31,0.11,0.49,0.08C3.44,3.52,3.63,3.41,3.7,3.23c0.02-0.05,0.03-0.11,0.02-0.17C3.7,2.94,3.54,2.87,3.44,2.81z"/>
</g>
</svg>
